<?xml version="1.0" encoding="utf-8"?>
<!-- Generator: Adobe Illustrator 18.0.0, SVG Export Plug-In . SVG Version: 6.00 Build 0)  -->
<!DOCTYPE svg PUBLIC "-//W3C//DTD SVG 1.1//EN" "http://www.w3.org/Graphics/SVG/1.1/DTD/svg11.dtd">
<svg version="1.1" id="Layer_1" xmlns="http://www.w3.org/2000/svg" xmlns:xlink="http://www.w3.org/1999/xlink" x="0px" y="0px"
	 viewBox="0 0 329.3 255.6" enable-background="new 0 0 329.3 255.6" xml:space="preserve">
<g>
	<rect y="0" fill="#FFFFFF" width="326.1" height="255.6"/>
	<rect y="233.3" fill="#FFFFFF" width="326.1" height="6.9"/>
	<rect y="184.7" fill="#FFFFFF" width="326.1" height="10.3"/>
	<rect y="223" fill="#FFFFFF" width="326.1" height="4"/>
	<rect y="0" fill="#FFFFFF" width="329.3" height="6.3"/>
	<rect y="165.3" fill="#FFFFFF" width="326.1" height="12.6"/>
	<rect y="203" fill="#FFFFFF" width="326.1" height="13.7"/>
	<rect y="30.9" fill="#FFFFFF" width="326.1" height="7.4"/>
	<rect y="14.3" fill="#FFFFFF" width="326.1" height="8.6"/>
	<rect y="123.5" fill="#FFFFFF" width="326.1" height="33.7"/>
	<rect y="246.4" fill="#FFFFFF" width="326.1" height="9.1"/>
	<rect y="40.6" fill="#FFFFFF" width="326.1" height="34.9"/>
	<rect y="86.9" fill="#FFFFFF" width="326.1" height="29.2"/>
	<polygon fill="#FFFFFF" points="75.5,4 75.5,69.6 169.9,69.6 169.9,255.6 269,255.6 269,70.8 329.3,70.8 329.3,4 	"/>
	<rect x="220.7" y="159.5" fill="#FFFFFF" width="40.6" height="96.1"/>
	<g>
		<defs>
			<rect id="SVGID_1_" y="0" width="329.3" height="255.6"/>
		</defs>
		<use xlink:href="#SVGID_1_"  overflow="visible" fill="#FFFFFF"/>
		<clipPath id="SVGID_2_">
			<use xlink:href="#SVGID_1_"  overflow="visible"/>
		</clipPath>
		<path clip-path="url(#SVGID_2_)" fill="#FFFFFF" d="M259.6,129.2c0,11.4-9.2,20.6-20.6,20.6c-11.4,0-20.6-9.2-20.6-20.6
			c0-11.4,9.2-20.6,20.6-20.6C250.4,108.6,259.6,117.8,259.6,129.2"/>
		<rect x="269" y="70.8" clip-path="url(#SVGID_2_)" fill="#FFFFFF" width="60.2" height="184.8"/>
		<rect x="275.5" y="75.5" clip-path="url(#SVGID_2_)" fill="#FFFFFF" width="53.8" height="181.1"/>
		<rect x="241" y="162.9" clip-path="url(#SVGID_2_)" fill="#FFFFFF" width="40.6" height="93.7"/>
		<path clip-path="url(#SVGID_2_)" fill="#FFFFFF" d="M283,133.8c0,11.4-9.2,20.6-20.6,20.6c-11.4,0-20.6-9.2-20.6-20.6
			s9.2-20.6,20.6-20.6C273.8,113.2,283,122.4,283,133.8"/>
	</g>
</g>
</svg>
