<?xml version="1.0" encoding="UTF-8" standalone="no"?>
<svg
   xmlns:dc="http://purl.org/dc/elements/1.1/"
   xmlns:cc="http://creativecommons.org/ns#"
   xmlns:rdf="http://www.w3.org/1999/02/22-rdf-syntax-ns#"
   xmlns:svg="http://www.w3.org/2000/svg"
   xmlns="http://www.w3.org/2000/svg"
   xmlns:sodipodi="http://sodipodi.sourceforge.net/DTD/sodipodi-0.dtd"
   xmlns:inkscape="http://www.inkscape.org/namespaces/inkscape"
   version="1.1"
   id="Layer_1"
   x="0px"
   y="0px"
   viewBox="0 0 40.000001 39.999999"
   enable-background="new 0 0 329.3 255.6"
   xml:space="preserve"
   sodipodi:docname="tecnica.svg"
   width="40"
   height="40"
   inkscape:version="1.0.2 (e86c870879, 2021-01-15, custom)"><metadata
   id="metadata43"><rdf:RDF><cc:Work
       rdf:about=""><dc:format>image/svg+xml</dc:format><dc:type
         rdf:resource="http://purl.org/dc/dcmitype/StillImage" /><dc:title></dc:title></cc:Work></rdf:RDF></metadata><defs
   id="defs41" /><sodipodi:namedview
   pagecolor="#ffffff"
   bordercolor="#666666"
   borderopacity="1"
   objecttolerance="10"
   gridtolerance="10"
   guidetolerance="10"
   inkscape:pageopacity="0"
   inkscape:pageshadow="2"
   inkscape:window-width="1877"
   inkscape:window-height="1008"
   id="namedview39"
   showgrid="false"
   inkscape:zoom="3.0883694"
   inkscape:cx="164.64999"
   inkscape:cy="127.8"
   inkscape:window-x="0"
   inkscape:window-y="0"
   inkscape:window-maximized="0"
   inkscape:current-layer="Layer_1" />
<g
   id="g36"
   transform="matrix(0.12764362,0,0,0.12764362,-1.2174479,4.1499309)">
	<path
   fill="#ffffff"
   d="m 96.2,154.4 c 25.1,0 50.3,0 75.4,0 0.3,0 0.5,0 0.8,0 0.4,0 0.5,-0.2 0.5,-0.5 0,-0.2 0,-0.4 0,-0.6 0,-9.4 0,-18.8 0,-28.2 0,-1.2 0.2,-1.1 -1.1,-1.1 -50.4,0 -100.7,0 -151.1,0 -1.3,0 -1.1,-0.1 -1.1,1.2 0,9.3 0,18.7 0,28 0,1.2 0,1.2 1.2,1.2 25.1,0 50.2,0 75.4,0 z m 0,-63.4 c -25.2,0 -50.4,0 -75.6,0 -1.1,0 -1,-0.2 -1,1 0,8 0,16.1 0,24.1 0,0.2 0,0.4 0,0.6 0,0.4 0.1,0.5 0.5,0.5 0.2,0 0.3,0 0.5,0 50.4,0 100.8,0 151.3,0 1.2,0 1,0 1,-1.1 0,-8 0,-16 0,-24 0,-1.4 0.2,-1.2 -1.2,-1.2 C 146.5,91 121.4,91 96.2,91 Z M 96.1,80.6 c 25.1,0 50.3,0 75.4,0 0.2,0 0.5,0 0.7,0 0.5,0 0.6,-0.1 0.6,-0.6 0,-1.1 0,-2.3 0,-3.4 0,-1.3 0.2,-1.2 -1.2,-1.2 -27.6,0 -55.3,0 -82.9,0 -1.2,0 -1.1,0.2 -1.1,-1.1 0,-8.1 0,-16.2 0,-24.2 0,-0.9 0.2,-1 -0.9,-0.9 -0.1,0 -0.1,0 -0.2,0 -21.9,0 -43.9,0 -65.8,0 -1.2,0 -1.1,-0.1 -1.1,1.1 0,9.7 0,19.4 0,29.1 0,1.4 -0.2,1.3 1.2,1.3 25.1,-0.1 50.2,-0.1 75.3,-0.1 z m 0.1,115.2 c -25.1,0 -50.2,0 -75.2,0 -0.2,0 -0.5,0 -0.7,0 -0.7,0 -0.7,0 -0.7,0.8 0,3.5 0,6.9 0,10.4 0,1.4 -0.1,1.2 1.2,1.2 50.3,0 100.6,0 150.9,0 0.2,0 0.3,0 0.5,0 0.7,0 0.7,0 0.7,-0.8 0,-3.5 0,-6.9 0,-10.4 0,-1.3 0.2,-1.2 -1.2,-1.2 -25.2,0 -50.3,0 -75.5,0 z M 96.1,173 c 25.1,0 50.3,0 75.4,0 0.2,0 0.3,0 0.5,0 0.8,0 0.8,0 0.8,-0.8 0,-3 0,-6.1 0,-9.1 0,-1.3 0,-1.3 -1.3,-1.3 -50.2,0 -100.4,0 -150.7,0 -0.1,0 -0.3,0 -0.4,0 -0.9,0 -0.9,0 -0.9,0.9 0,3 0,6.1 0,9.1 0,1.4 -0.1,1.2 1.2,1.2 25.2,0 50.3,0 75.4,0 z m 122.7,26.9 c 0,14.1 0,28.1 0,42.2 0,0.3 0,0.5 0,0.8 0,0.4 0.2,0.5 0.5,0.5 0.2,0 0.5,0 0.7,0 5.3,0 10.5,0 15.8,0 1.4,0 1.2,0.2 1.2,-1.2 0,-27.1 0,-54.2 0,-81.3 0,-1.6 -0.2,-1.3 1.3,-1.3 5.4,0 10.7,0 16.1,0 0.8,0 0.9,0 0.9,-0.8 0,-0.4 0,-0.8 0,-1.3 0,-0.8 0,-0.8 -0.9,-0.8 -11.6,0 -23.2,0 -34.8,0 -0.8,0 -0.8,0 -0.9,0.8 0,0.2 0,0.4 0,0.6 0.1,13.9 0.1,27.9 0.1,41.8 z M 96.2,188.5 c 25.1,0 50.2,0 75.2,0 0.2,0 0.4,0 0.6,0 0.8,0 0.8,0 0.8,-0.8 0,-2.4 0,-4.8 0,-7.2 0,-1.5 0.2,-1.3 -1.3,-1.3 -50.2,0 -100.3,0 -150.5,0 -0.3,0 -0.5,0 -0.8,0 -0.7,0 -0.8,0 -0.8,0.8 0,2.4 0,4.8 0,7.3 0,1.5 -0.2,1.2 1.2,1.2 25.4,0 50.5,0 75.6,0 z m 0,54.9 c 25.1,0 50.3,0 75.4,0 0.2,0 0.3,0 0.5,0 0.7,0 0.8,0 0.8,-0.7 0,-2.1 0,-4.2 0,-6.3 0,-1.5 0.2,-1.3 -1.3,-1.3 -50,0 -100.1,0 -150.1,0 -0.3,0 -0.6,0 -1,0 -1,0 -1,-0.1 -1,0.9 0,2.1 0,4.1 0,6.2 0,1.4 -0.1,1.2 1.2,1.2 25.2,0 50.3,0 75.5,0 z m 71.9,-231 c -49,0 -98.1,0 -147.1,0 -0.3,0 -0.6,0 -0.9,0 -0.5,-0.1 -0.6,0.2 -0.6,0.6 0,1.3 0,2.7 0,4 0,1.2 -0.1,1.1 1.1,1.1 22,0 44,0 65.9,0 0.1,0 0.3,0 0.4,0 0.7,0 0.7,0 0.7,-0.7 0,-1.3 0,-1.3 1.4,-1.3 75.5,0 150.9,0 226.4,0 0.2,0 0.5,0 0.7,0 0.4,0 0.6,-0.1 0.6,-0.5 0,-0.6 0,-1.2 0,-1.7 0,-1.3 0,-1.3 -1.3,-1.3 -49.1,-0.2 -98.2,-0.2 -147.3,-0.2 z m -72,216.9 c 25.2,0 50.3,0 75.5,0 0.2,0 0.5,0 0.7,0 0.4,0 0.5,-0.2 0.5,-0.6 0,-1.4 0,-2.8 0,-4.2 0,-1.3 0,-1.3 -1.3,-1.3 -50.2,0 -100.5,0 -150.7,0 -0.2,0 -0.4,0 -0.6,0 -0.5,-0.1 -0.7,0.2 -0.7,0.7 0,1.6 0,3.2 0,4.7 0,0.5 0.1,0.7 0.6,0.7 0.2,0 0.4,0 0.6,0 25.2,0 50.3,0 75.4,0 z M 242.7,146 c -4.2,-4.8 -5.7,-10.2 -4.5,-16.3 1.2,-6.2 4.8,-10.5 10.3,-13.3 -5.5,-6 -16,-8.2 -24.3,-2 -8.1,6.1 -9.8,17.2 -4,25.4 5.7,8.2 15.9,9.5 22.5,6.2 z M 96.4,213.9 c -25.2,0 -50.4,0 -75.5,0 -0.3,0 -0.5,0 -0.8,0 -0.3,0 -0.5,0.1 -0.5,0.5 0,0.6 0,1.2 0,1.8 0,1.4 -0.2,1.2 1.2,1.2 50.3,0 100.6,0 150.9,0 0.2,0 0.5,0 0.7,0 0.4,0 0.5,-0.1 0.5,-0.5 0,-0.6 0,-1.2 0,-1.8 0,-1.3 0.2,-1.2 -1.2,-1.2 -25.1,0 -50.2,0 -75.3,0 z M 53.6,33.1 c 0.5,0 1,0 1.6,0 10.5,0 21.1,0 31.6,0 1,0 1,0.1 1,-0.9 0,-1.8 0,-3.7 0,-5.5 0,-1.2 0,-1.2 -1.2,-1.2 -21.9,0 -43.7,0 -65.6,0 -0.2,0 -0.4,0 -0.6,0 -0.7,0 -0.7,0 -0.7,0.7 0,2.1 0,4.1 0,6.2 0,0.8 0,0.8 0.7,0.8 0.2,0 0.4,0 0.6,0 10.8,-0.1 21.7,-0.1 32.6,-0.1 z M 53.7,47 c 10.9,0 21.7,0 32.6,0 0.3,0 0.5,0 0.8,0 0.5,0 0.7,-0.1 0.7,-0.7 0,-1.7 0,-3.5 0,-5.2 0,-0.7 0,-0.7 -0.7,-0.8 -0.1,0 -0.3,0 -0.4,0 -21.9,0 -43.8,0 -65.7,0 -0.2,0 -0.4,0 -0.6,0 -0.5,-0.1 -0.7,0.2 -0.7,0.7 0,1.7 0,3.4 0,5 0,1 -0.1,0.9 0.9,0.9 0.2,0 0.5,0 0.7,0 C 32,47 42.9,47 53.7,47 Z m 214.4,71.6 c 0,-0.3 0,-0.7 0,-1 0,-11.9 0,-23.8 0,-35.8 0,-1.4 -0.2,-1.2 1.2,-1.2 15.3,0 30.6,0 45.9,0 0.3,0 0.5,0 0.8,0 0.4,0 0.6,-0.2 0.6,-0.6 0,-1 0,-1.9 0,-2.9 0,-0.5 -0.1,-0.7 -0.7,-0.7 -1.1,0 -2.2,0 -3.3,0 -16.4,0 -32.8,0 -49.1,0 -0.2,0 -0.4,0 -0.6,0 -0.5,-0.1 -0.7,0.2 -0.7,0.7 0,1.3 0.1,2.6 0.1,4 0,3.5 0,7 0,10.6 -0.1,7.8 0,15.5 0,23.3 0,0.5 0.2,0.8 0.7,1 1.7,0.6 3.2,1.5 4.6,2.6 0.1,-0.1 0.2,0.1 0.5,0 z m -0.1,29.3 c -1.6,1.2 -3.2,2.2 -5,2.8 -0.6,0.2 -0.7,0.5 -0.7,1.1 0,2.3 0,4.6 0.1,7 0,0.7 0,0.8 0.7,0.8 1.4,0 2.8,0 4.3,0 0.8,0 0.8,0 0.8,-0.8 0,-3.4 0,-6.8 0,-10.2 -0.1,-0.3 0,-0.5 -0.2,-0.7 z"
   id="path2" />
	<path
   fill="#ffffff"
   d="m 96.2,154.4 c -25.1,0 -50.2,0 -75.3,0 -1.2,0 -1.2,0 -1.2,-1.2 0,-9.3 0,-18.7 0,-28 0,-1.3 -0.2,-1.2 1.1,-1.2 50.4,0 100.7,0 151.1,0 1.2,0 1.1,-0.1 1.1,1.1 0,9.4 0,18.8 0,28.2 0,0.2 0,0.4 0,0.6 0,0.4 -0.1,0.5 -0.5,0.5 -0.3,0 -0.5,0 -0.8,0 -25.2,0 -50.4,0 -75.5,0 z"
   id="path4" />
	<path
   fill="#ffffff"
   d="m 96.2,91 c 25.1,0 50.3,0 75.4,0 1.3,0 1.2,-0.2 1.2,1.2 0,8 0,16 0,24 0,1 0.2,1.1 -1,1.1 -50.4,0 -100.8,0 -151.3,0 -0.2,0 -0.3,0 -0.5,0 -0.4,0 -0.5,-0.2 -0.5,-0.5 0,-0.2 0,-0.4 0,-0.6 0,-8 0,-16.1 0,-24.1 0,-1.2 -0.1,-1 1,-1 C 45.8,91 71,91 96.2,91 Z"
   id="path6" />
	<path
   fill="#ffffff"
   d="m 96.1,80.6 c -25.1,0 -50.2,0 -75.3,0 -1.4,0 -1.2,0.2 -1.2,-1.3 0,-9.7 0,-19.4 0,-29.1 0,-1.2 -0.1,-1.1 1.1,-1.1 21.9,0 43.9,0 65.8,0 0.1,0 0.1,0 0.2,0 1.1,0 0.9,0.1 0.9,0.9 0,8.1 0,16.2 0,24.2 0,1.2 -0.1,1.1 1.1,1.1 27.6,0 55.3,0 82.9,0 1.4,0 1.2,-0.2 1.2,1.2 0,1.1 0,2.3 0,3.4 0,0.5 -0.2,0.6 -0.6,0.6 -0.2,0 -0.5,0 -0.7,0 -25.1,0.1 -50.2,0.1 -75.4,0.1 z"
   id="path8" />
	<path
   fill="#ffffff"
   d="m 96.2,195.8 c 25.1,0 50.3,0 75.4,0 1.4,0 1.2,-0.1 1.2,1.2 0,3.5 0,6.9 0,10.4 0,0.7 0,0.7 -0.7,0.8 -0.2,0 -0.3,0 -0.5,0 -50.3,0 -100.6,0 -150.9,0 -1.3,0 -1.2,0.2 -1.2,-1.2 0,-3.5 0,-6.9 0,-10.4 0,-0.7 0,-0.8 0.7,-0.8 0.2,0 0.5,0 0.7,0 25.2,0 50.3,0 75.3,0 z"
   id="path10" />
	<path
   fill="#ffffff"
   d="m 96.1,173 c -25.1,0 -50.2,0 -75.3,0 -1.4,0 -1.2,0.2 -1.2,-1.2 0,-3 0,-6.1 0,-9.1 0,-0.9 0,-0.9 0.9,-0.9 0.1,0 0.3,0 0.4,0 50.2,0 100.4,0 150.7,0 1.3,0 1.3,0 1.3,1.3 0,3 0,6.1 0,9.1 0,0.8 0,0.8 -0.8,0.8 -0.2,0 -0.3,0 -0.5,0 -25.2,0 -50.3,0 -75.5,0 z"
   id="path12" />
	<path
   fill="#ffffff"
   d="m 218.8,199.9 c 0,-14 0,-28 0,-42 0,-0.2 0,-0.4 0,-0.6 0,-0.8 0,-0.8 0.9,-0.8 11.6,0 23.2,0 34.8,0 0.8,0 0.8,0 0.9,0.8 0,0.4 0,0.8 0,1.3 0,0.8 0,0.8 -0.9,0.8 -5.4,0 -10.7,0 -16.1,0 -1.5,0 -1.3,-0.2 -1.3,1.3 0,27.1 0,54.2 0,81.3 0,1.4 0.2,1.2 -1.2,1.2 -5.3,0 -10.5,0 -15.8,0 -0.2,0 -0.5,0 -0.7,0 -0.4,0 -0.5,-0.1 -0.5,-0.5 0,-0.3 0,-0.5 0,-0.8 -0.1,-13.8 -0.1,-27.9 -0.1,-42 z"
   id="path14" />
	<path
   fill="#ffffff"
   d="m 96.2,188.5 c -25.1,0 -50.3,0 -75.4,0 -1.4,0 -1.2,0.2 -1.2,-1.2 0,-2.4 0,-4.8 0,-7.3 0,-0.7 0,-0.7 0.8,-0.8 0.3,0 0.5,0 0.8,0 50.2,0 100.3,0 150.5,0 1.5,0 1.3,-0.2 1.3,1.3 0,2.4 0,4.8 0,7.2 0,0.8 0,0.8 -0.8,0.8 -0.2,0 -0.4,0 -0.6,0 -25.2,0 -50.3,0 -75.4,0 z"
   id="path16" />
	<path
   fill="#ffffff"
   d="m 96.2,243.4 c -25.1,0 -50.3,0 -75.4,0 -1.3,0 -1.2,0.2 -1.2,-1.2 0,-2.1 0,-4.1 0,-6.2 0,-1 0,-0.9 1,-0.9 0.3,0 0.6,0 1,0 50,0 100.1,0 150.1,0 1.5,0 1.3,-0.2 1.3,1.3 0,2.1 0,4.2 0,6.3 0,0.7 0,0.7 -0.8,0.7 -0.2,0 -0.3,0 -0.5,0 -25.2,0 -50.4,0 -75.5,0 z"
   id="path18" />
	<path
   fill="#ffffff"
   d="m 168.1,12.4 c 49.1,0 98.2,0 147.3,0 1.3,0 1.3,0 1.3,1.3 0,0.6 0,1.2 0,1.7 0,0.4 -0.2,0.6 -0.6,0.5 -0.2,0 -0.5,0 -0.7,0 -75.5,0 -150.9,0 -226.4,0 -1.4,0 -1.4,0 -1.4,1.3 0,0.7 0,0.7 -0.7,0.7 -0.1,0 -0.3,0 -0.4,0 -22,0 -44,0 -65.9,0 -1.2,0 -1.1,0.1 -1.1,-1.1 0,-1.3 0,-2.7 0,-4 0,-0.4 0.1,-0.7 0.6,-0.6 0.3,0 0.6,0 0.9,0 49.1,0.2 98.1,0.2 147.1,0.2 z"
   id="path20" />
	<path
   fill="#ffffff"
   d="m 96.1,229.3 c -25.1,0 -50.2,0 -75.3,0 -0.2,0 -0.4,0 -0.6,0 -0.5,0.1 -0.7,-0.2 -0.6,-0.7 0,-1.6 0,-3.2 0,-4.7 0,-0.5 0.1,-0.7 0.7,-0.7 0.2,0 0.4,0 0.6,0 50.2,0 100.5,0 150.7,0 1.3,0 1.3,0 1.3,1.3 0,1.4 0,2.8 0,4.2 0,0.4 -0.1,0.6 -0.5,0.6 -0.2,0 -0.5,0 -0.7,0 -25.2,0 -50.4,0 -75.6,0 z"
   id="path22" />
	<path
   fill="#ffffff"
   d="m 242.7,146 c -6.5,3.3 -16.8,2 -22.6,-6.2 -5.8,-8.2 -4,-19.4 4,-25.4 8.3,-6.2 18.8,-4.1 24.3,2 -5.5,2.8 -9.2,7.2 -10.3,13.3 -1.1,6.1 0.4,11.5 4.6,16.3 z"
   id="path24" />
	<path
   fill="#ffffff"
   d="m 96.4,213.9 c 25.1,0 50.2,0 75.3,0 1.4,0 1.2,-0.2 1.2,1.2 0,0.6 0,1.2 0,1.8 0,0.4 -0.1,0.5 -0.5,0.5 -0.2,0 -0.5,0 -0.7,0 -50.3,0 -100.6,0 -150.9,0 -1.4,0 -1.2,0.2 -1.2,-1.2 0,-0.6 0,-1.2 0,-1.8 0,-0.3 0.1,-0.5 0.5,-0.5 0.3,0 0.5,0 0.8,0 25.1,0 50.3,0 75.5,0 z"
   id="path26" />
	<path
   fill="#ffffff"
   d="m 53.6,33.1 c -10.9,0 -21.8,0 -32.7,0 -0.2,0 -0.4,0 -0.6,0 -0.7,0 -0.7,0 -0.7,-0.8 0,-2.1 0,-4.1 0,-6.2 0,-0.7 0,-0.7 0.7,-0.7 0.2,0 0.4,0 0.6,0 21.9,0 43.7,0 65.6,0 1.2,0 1.2,0 1.2,1.2 0,1.8 0,3.7 0,5.5 0,1 0.1,0.9 -1,0.9 -10.5,0 -21.1,0 -31.6,0 -0.5,0.1 -1,0.1 -1.5,0.1 z"
   id="path28" />
	<path
   fill="#ffffff"
   d="m 53.7,47 c -10.8,0 -21.6,0 -32.5,0 -0.2,0 -0.5,0 -0.7,0 -1,0 -0.9,0.1 -0.9,-0.9 0,-1.7 0,-3.4 0,-5 0,-0.5 0.2,-0.7 0.7,-0.7 0.2,0 0.4,0 0.6,0 21.9,0 43.8,0 65.7,0 0.1,0 0.3,0 0.4,0 0.7,0 0.7,0 0.7,0.8 0,1.7 0,3.5 0,5.2 0,0.5 -0.2,0.7 -0.7,0.7 -0.3,0 -0.5,0 -0.8,0 C 75.4,47 64.5,47 53.7,47 Z"
   id="path30" />
	<path
   fill="#ffffff"
   d="m 268.1,118.6 c -0.3,0.1 -0.4,-0.1 -0.5,-0.2 -1.4,-1.1 -3,-2 -4.6,-2.6 -0.5,-0.2 -0.7,-0.5 -0.7,-1 0,-7.8 0,-15.5 0,-23.3 0,-3.5 0,-7 0,-10.6 0,-1.3 0,-2.6 -0.1,-4 0,-0.5 0.1,-0.7 0.7,-0.7 0.2,0 0.4,0 0.6,0 16.4,0 32.8,0 49.1,0 1.1,0 2.2,0 3.3,0 0.5,0 0.7,0.2 0.7,0.7 0,1 0,1.9 0,2.9 0,0.4 -0.1,0.6 -0.6,0.6 -0.3,0 -0.5,0 -0.8,0 -15.3,0 -30.6,0 -45.9,0 -1.4,0 -1.2,-0.1 -1.2,1.2 0,11.9 0,23.8 0,35.8 0,0.5 0,0.9 0,1.2 z"
   id="path32" />
	<path
   fill="#ffffff"
   d="m 268,147.9 c 0.2,0.3 0.1,0.5 0.1,0.6 0,3.4 0,6.8 0,10.2 0,0.8 0,0.8 -0.8,0.8 -1.4,0 -2.8,0 -4.3,0 -0.7,0 -0.7,0 -0.7,-0.8 0,-2.3 0,-4.6 -0.1,-7 0,-0.6 0.1,-0.9 0.7,-1.1 1.9,-0.6 3.5,-1.5 5.1,-2.7 z"
   id="path34" />
</g>
</svg>
